<mxfile host="app.diagrams.net" agent="Mozilla/5.0 (Windows NT 10.0; Win64; x64; rv:136.0) Gecko/20100101 Firefox/136.0" version="26.1.0">
  <diagram name="Page-1" id="NToZ00nypEnyv6gxQU2M">
    <mxGraphModel grid="1" page="1" gridSize="10" guides="1" tooltips="1" connect="1" arrows="1" fold="1" pageScale="1" pageWidth="850" pageHeight="1100" math="0" shadow="0">
      <root>
        <mxCell id="0" />
        <mxCell id="1" parent="0" />
        <mxCell id="tchoRPZfou53xLzlWMuH-1" value="&lt;div&gt;&lt;br&gt;&lt;/div&gt;" style="rounded=0;whiteSpace=wrap;html=1;fillColor=none;" vertex="1" parent="1">
          <mxGeometry x="200" y="130" width="590" height="660" as="geometry" />
        </mxCell>
        <mxCell id="tchoRPZfou53xLzlWMuH-2" value="&lt;div&gt;Logged in&amp;nbsp;&lt;/div&gt;&lt;div&gt;Client-side computer&lt;/div&gt;" style="shape=umlActor;verticalLabelPosition=bottom;verticalAlign=top;html=1;outlineConnect=0;" vertex="1" parent="1">
          <mxGeometry x="60" y="390" width="30" height="60" as="geometry" />
        </mxCell>
        <mxCell id="tchoRPZfou53xLzlWMuH-7" value="&lt;div&gt;Initiate game&lt;/div&gt;" style="ellipse;whiteSpace=wrap;html=1;" vertex="1" parent="1">
          <mxGeometry x="230" y="150" width="120" height="80" as="geometry" />
        </mxCell>
        <mxCell id="tchoRPZfou53xLzlWMuH-8" value="&lt;div&gt;&amp;lt;&amp;lt;extend&amp;gt;&amp;gt;&lt;/div&gt;" style="endArrow=none;dashed=1;html=1;rounded=0;entryX=0.5;entryY=0;entryDx=0;entryDy=0;strokeWidth=1;endFill=1;startFill=1;startArrow=classic;" edge="1" parent="1" target="tchoRPZfou53xLzlWMuH-13">
          <mxGeometry width="50" height="50" relative="1" as="geometry">
            <mxPoint x="350" y="190" as="sourcePoint" />
            <mxPoint x="450" y="190" as="targetPoint" />
          </mxGeometry>
        </mxCell>
        <mxCell id="tchoRPZfou53xLzlWMuH-9" value="" style="curved=1;endArrow=none;html=1;rounded=0;entryX=0;entryY=0.5;entryDx=0;entryDy=0;startFill=0;" edge="1" parent="1">
          <mxGeometry width="50" height="50" relative="1" as="geometry">
            <mxPoint x="100" y="430" as="sourcePoint" />
            <mxPoint x="230" y="190" as="targetPoint" />
            <Array as="points">
              <mxPoint x="150" y="430" />
              <mxPoint x="160" y="190" />
            </Array>
          </mxGeometry>
        </mxCell>
        <mxCell id="tchoRPZfou53xLzlWMuH-10" value="&lt;div&gt;Whist&lt;/div&gt;" style="ellipse;whiteSpace=wrap;html=1;" vertex="1" parent="1">
          <mxGeometry x="380" y="270" width="120" height="80" as="geometry" />
        </mxCell>
        <mxCell id="tchoRPZfou53xLzlWMuH-11" value="&lt;div&gt;Connect Four&lt;/div&gt;" style="ellipse;whiteSpace=wrap;html=1;" vertex="1" parent="1">
          <mxGeometry x="229" y="270" width="120" height="80" as="geometry" />
        </mxCell>
        <mxCell id="tchoRPZfou53xLzlWMuH-13" value="&lt;div&gt;Checkers&lt;/div&gt;" style="ellipse;whiteSpace=wrap;html=1;" vertex="1" parent="1">
          <mxGeometry x="530" y="269.5" width="120" height="80" as="geometry" />
        </mxCell>
        <mxCell id="tchoRPZfou53xLzlWMuH-14" value="&lt;div&gt;Quit&lt;/div&gt;" style="ellipse;whiteSpace=wrap;html=1;" vertex="1" parent="1">
          <mxGeometry x="230" y="700" width="120" height="80" as="geometry" />
        </mxCell>
        <mxCell id="tchoRPZfou53xLzlWMuH-19" value="" style="curved=1;endArrow=none;html=1;rounded=0;entryX=0;entryY=0.5;entryDx=0;entryDy=0;startFill=0;" edge="1" parent="1" target="tchoRPZfou53xLzlWMuH-14">
          <mxGeometry width="50" height="50" relative="1" as="geometry">
            <mxPoint x="100" y="430" as="sourcePoint" />
            <mxPoint x="370" y="410" as="targetPoint" />
            <Array as="points">
              <mxPoint x="160" y="430" />
              <mxPoint x="190" y="710" />
            </Array>
          </mxGeometry>
        </mxCell>
        <mxCell id="tchoRPZfou53xLzlWMuH-20" value="&lt;div&gt;Move Checker&lt;/div&gt;" style="ellipse;whiteSpace=wrap;html=1;" vertex="1" parent="1">
          <mxGeometry x="530" y="382.5" width="120" height="80" as="geometry" />
        </mxCell>
        <mxCell id="tchoRPZfou53xLzlWMuH-21" value="&lt;div&gt;Drop Checker&lt;/div&gt;" style="ellipse;whiteSpace=wrap;html=1;" vertex="1" parent="1">
          <mxGeometry x="230" y="383" width="120" height="80" as="geometry" />
        </mxCell>
        <mxCell id="tchoRPZfou53xLzlWMuH-22" value="&lt;div&gt;Data fetch&lt;/div&gt;" style="ellipse;whiteSpace=wrap;html=1;" vertex="1" parent="1">
          <mxGeometry x="230" y="601" width="120" height="80" as="geometry" />
        </mxCell>
        <mxCell id="tchoRPZfou53xLzlWMuH-23" value="Promote to king" style="ellipse;whiteSpace=wrap;html=1;" vertex="1" parent="1">
          <mxGeometry x="531" y="490.5" width="120" height="80" as="geometry" />
        </mxCell>
        <mxCell id="tchoRPZfou53xLzlWMuH-24" value="" style="curved=1;endArrow=none;html=1;rounded=0;entryX=0;entryY=0.5;entryDx=0;entryDy=0;startFill=0;" edge="1" parent="1" target="tchoRPZfou53xLzlWMuH-22">
          <mxGeometry width="50" height="50" relative="1" as="geometry">
            <mxPoint x="100" y="430" as="sourcePoint" />
            <mxPoint x="370" y="540" as="targetPoint" />
            <Array as="points">
              <mxPoint x="170" y="430" />
              <mxPoint x="190" y="610" />
            </Array>
          </mxGeometry>
        </mxCell>
        <mxCell id="tchoRPZfou53xLzlWMuH-25" value="&lt;div&gt;Game board&lt;/div&gt;" style="ellipse;whiteSpace=wrap;html=1;" vertex="1" parent="1">
          <mxGeometry x="432" y="595" width="120" height="80" as="geometry" />
        </mxCell>
        <mxCell id="tchoRPZfou53xLzlWMuH-26" value="&amp;lt;&amp;lt;extend&amp;gt;&amp;gt;" style="endArrow=block;dashed=1;html=1;rounded=0;entryX=0.5;entryY=1;entryDx=0;entryDy=0;exitX=0.5;exitY=0;exitDx=0;exitDy=0;endFill=1;startArrow=none;startFill=0;" edge="1" parent="1" source="tchoRPZfou53xLzlWMuH-23" target="tchoRPZfou53xLzlWMuH-20">
          <mxGeometry width="50" height="50" relative="1" as="geometry">
            <mxPoint x="431" y="439.5" as="sourcePoint" />
            <mxPoint x="481" y="389.5" as="targetPoint" />
          </mxGeometry>
        </mxCell>
        <mxCell id="tchoRPZfou53xLzlWMuH-28" value="&lt;div&gt;&amp;lt;&amp;lt;extend&amp;gt;&amp;gt;&lt;/div&gt;" style="endArrow=block;dashed=1;html=1;rounded=0;entryX=0.5;entryY=1;entryDx=0;entryDy=0;exitX=0.5;exitY=0;exitDx=0;exitDy=0;endFill=1;startArrow=none;startFill=0;" edge="1" parent="1" source="tchoRPZfou53xLzlWMuH-21" target="tchoRPZfou53xLzlWMuH-11">
          <mxGeometry width="50" height="50" relative="1" as="geometry">
            <mxPoint x="294" y="390" as="sourcePoint" />
            <mxPoint x="293" y="350" as="targetPoint" />
          </mxGeometry>
        </mxCell>
        <mxCell id="tchoRPZfou53xLzlWMuH-30" value="&lt;div&gt;&amp;lt;&amp;lt;include&amp;gt;&amp;gt;&lt;/div&gt;" style="endArrow=none;dashed=1;html=1;rounded=0;entryX=0.983;entryY=0.423;entryDx=0;entryDy=0;exitX=0;exitY=0.5;exitDx=0;exitDy=0;endFill=1;startArrow=classic;startFill=1;entryPerimeter=0;" edge="1" parent="1" source="tchoRPZfou53xLzlWMuH-25" target="tchoRPZfou53xLzlWMuH-22">
          <mxGeometry width="50" height="50" relative="1" as="geometry">
            <mxPoint x="441" y="430" as="sourcePoint" />
            <mxPoint x="440" y="390" as="targetPoint" />
          </mxGeometry>
        </mxCell>
        <mxCell id="tchoRPZfou53xLzlWMuH-32" value="&lt;div&gt;&amp;lt;&amp;lt;extend&amp;gt;&amp;gt;&lt;/div&gt;" style="endArrow=block;dashed=1;html=1;rounded=0;entryX=0.5;entryY=1;entryDx=0;entryDy=0;exitX=0.5;exitY=0;exitDx=0;exitDy=0;endFill=1;startArrow=none;startFill=0;" edge="1" parent="1" source="tchoRPZfou53xLzlWMuH-20" target="tchoRPZfou53xLzlWMuH-13">
          <mxGeometry x="-0.0003" width="50" height="50" relative="1" as="geometry">
            <mxPoint x="593" y="389.5" as="sourcePoint" />
            <mxPoint x="592" y="349.5" as="targetPoint" />
            <mxPoint as="offset" />
          </mxGeometry>
        </mxCell>
        <mxCell id="tchoRPZfou53xLzlWMuH-33" value="&lt;div&gt;Game Logic&lt;/div&gt;" style="rounded=0;whiteSpace=wrap;html=1;" vertex="1" parent="1">
          <mxGeometry x="200" y="110" width="590" height="20" as="geometry" />
        </mxCell>
        <mxCell id="tchoRPZfou53xLzlWMuH-34" value="Check for Win" style="ellipse;whiteSpace=wrap;html=1;" vertex="1" parent="1">
          <mxGeometry x="432" y="700" width="120" height="80" as="geometry" />
        </mxCell>
        <mxCell id="tchoRPZfou53xLzlWMuH-35" value="&lt;div&gt;&amp;lt;&amp;lt;include&amp;gt;&amp;gt;&lt;/div&gt;" style="endArrow=none;dashed=1;html=1;rounded=0;entryX=0;entryY=0.5;entryDx=0;entryDy=0;exitX=1;exitY=0.5;exitDx=0;exitDy=0;endFill=1;startArrow=block;startFill=1;" edge="1" parent="1" source="tchoRPZfou53xLzlWMuH-14" target="tchoRPZfou53xLzlWMuH-34">
          <mxGeometry width="50" height="50" relative="1" as="geometry">
            <mxPoint x="442" y="646" as="sourcePoint" />
            <mxPoint x="358" y="646" as="targetPoint" />
          </mxGeometry>
        </mxCell>
        <mxCell id="tchoRPZfou53xLzlWMuH-36" value="&lt;div&gt;&amp;lt;&amp;lt;include&amp;gt;&amp;gt;&lt;/div&gt;" style="endArrow=none;dashed=1;html=1;rounded=0;entryX=0.5;entryY=0;entryDx=0;entryDy=0;exitX=0.5;exitY=1;exitDx=0;exitDy=0;endFill=1;startArrow=block;startFill=1;" edge="1" parent="1" source="tchoRPZfou53xLzlWMuH-25" target="tchoRPZfou53xLzlWMuH-34">
          <mxGeometry width="50" height="50" relative="1" as="geometry">
            <mxPoint x="360" y="750" as="sourcePoint" />
            <mxPoint x="442" y="750" as="targetPoint" />
          </mxGeometry>
        </mxCell>
        <mxCell id="tchoRPZfou53xLzlWMuH-38" value="&lt;div&gt;&amp;lt;&amp;lt;extend&amp;gt;&amp;gt;&lt;/div&gt;" style="endArrow=none;dashed=1;html=1;rounded=0;entryX=0.5;entryY=0;entryDx=0;entryDy=0;strokeWidth=1;endFill=1;startFill=1;startArrow=classic;exitX=0.5;exitY=1;exitDx=0;exitDy=0;" edge="1" parent="1" source="tchoRPZfou53xLzlWMuH-7" target="tchoRPZfou53xLzlWMuH-11">
          <mxGeometry width="50" height="50" relative="1" as="geometry">
            <mxPoint x="360" y="200" as="sourcePoint" />
            <mxPoint x="589" y="280" as="targetPoint" />
          </mxGeometry>
        </mxCell>
        <mxCell id="tchoRPZfou53xLzlWMuH-39" value="&lt;div&gt;&amp;lt;&amp;lt;extend&amp;gt;&amp;gt;&lt;/div&gt;" style="endArrow=none;dashed=1;html=1;rounded=0;entryX=0.5;entryY=0;entryDx=0;entryDy=0;strokeWidth=1;endFill=1;startFill=1;startArrow=classic;exitX=1;exitY=1;exitDx=0;exitDy=0;" edge="1" parent="1" source="tchoRPZfou53xLzlWMuH-7" target="tchoRPZfou53xLzlWMuH-10">
          <mxGeometry width="50" height="50" relative="1" as="geometry">
            <mxPoint x="349" y="226" as="sourcePoint" />
            <mxPoint x="440" y="280" as="targetPoint" />
          </mxGeometry>
        </mxCell>
        <mxCell id="tchoRPZfou53xLzlWMuH-40" value="&lt;div&gt;&amp;lt;&amp;lt;extend&amp;gt;&amp;gt;&lt;/div&gt;" style="endArrow=classic;dashed=1;html=1;rounded=0;entryX=0.89;entryY=0.793;entryDx=0;entryDy=0;entryPerimeter=0;exitX=0;exitY=0;exitDx=0;exitDy=0;startArrow=none;startFill=0;endFill=1;" edge="1" parent="1" source="tchoRPZfou53xLzlWMuH-34" target="tchoRPZfou53xLzlWMuH-22">
          <mxGeometry width="50" height="50" relative="1" as="geometry">
            <mxPoint x="480" y="710" as="sourcePoint" />
            <mxPoint x="530" y="660" as="targetPoint" />
          </mxGeometry>
        </mxCell>
        <mxCell id="tchoRPZfou53xLzlWMuH-41" value="&lt;div&gt;Play a card&lt;/div&gt;" style="ellipse;whiteSpace=wrap;html=1;" vertex="1" parent="1">
          <mxGeometry x="380" y="383" width="120" height="80" as="geometry" />
        </mxCell>
        <mxCell id="tchoRPZfou53xLzlWMuH-42" value="&lt;div&gt;Draw a card&lt;/div&gt;" style="ellipse;whiteSpace=wrap;html=1;" vertex="1" parent="1">
          <mxGeometry x="380" y="491" width="120" height="80" as="geometry" />
        </mxCell>
        <mxCell id="tchoRPZfou53xLzlWMuH-44" value="&lt;div&gt;&amp;lt;&amp;lt;extend&amp;gt;&amp;gt;&lt;/div&gt;" style="endArrow=block;dashed=1;html=1;rounded=0;entryX=0.5;entryY=1;entryDx=0;entryDy=0;exitX=0.5;exitY=0;exitDx=0;exitDy=0;endFill=1;startArrow=none;startFill=0;" edge="1" parent="1" source="tchoRPZfou53xLzlWMuH-42" target="tchoRPZfou53xLzlWMuH-41">
          <mxGeometry width="50" height="50" relative="1" as="geometry">
            <mxPoint x="661" y="393" as="sourcePoint" />
            <mxPoint x="660" y="360" as="targetPoint" />
          </mxGeometry>
        </mxCell>
        <mxCell id="tchoRPZfou53xLzlWMuH-45" value="&lt;div&gt;&amp;lt;&amp;lt;extend&amp;gt;&amp;gt;&lt;/div&gt;" style="endArrow=block;dashed=1;html=1;rounded=0;entryX=0.5;entryY=1;entryDx=0;entryDy=0;exitX=0.5;exitY=0;exitDx=0;exitDy=0;endFill=1;startArrow=none;startFill=0;" edge="1" parent="1" source="tchoRPZfou53xLzlWMuH-41" target="tchoRPZfou53xLzlWMuH-10">
          <mxGeometry width="50" height="50" relative="1" as="geometry">
            <mxPoint x="671" y="403" as="sourcePoint" />
            <mxPoint x="670" y="370" as="targetPoint" />
          </mxGeometry>
        </mxCell>
      </root>
    </mxGraphModel>
  </diagram>
</mxfile>
